name D:\school\WTK\thesis\model\3dpredictsim\Results\MidTarsalJoint\Fal_s1_bCst_PF_Natali2010_ls150_MT_k200_MTP_T5_ig23.mot
datacolumns 128
datarows 4
range 0.00000000 0.03474434
endheader
time	pelvis_tilt	pelvis_list	pelvis_rotation	pelvis_tx	pelvis_ty	pelvis_tz	hip_flexion_l	hip_adduction_l	hip_rotation_l	hip_flexion_r	hip_adduction_r	hip_rotation_r	knee_angle_l	knee_angle_r	ankle_angle_l	ankle_angle_r	subtalar_angle_l	subtalar_angle_r	mtj_angle_l	mtj_angle_r	mtp_angle_l	mtp_angle_r	lumbar_extension	lumbar_bending	lumbar_rotation	arm_flex_l	arm_add_l	arm_rot_l	arm_flex_r	arm_add_r	arm_rot_r	elbow_flex_l	elbow_flex_r	pro_sup_l	pro_sup_r	glut_med1_l/activation	glut_med2_l/activation	glut_med3_l/activation	glut_min1_l/activation	glut_min2_l/activation	glut_min3_l/activation	semimem_l/activation	semiten_l/activation	bifemlh_l/activation	bifemsh_l/activation	sar_l/activation	add_long_l/activation	add_brev_l/activation	add_mag1_l/activation	add_mag2_l/activation	add_mag3_l/activation	tfl_l/activation	pect_l/activation	grac_l/activation	glut_max1_l/activation	glut_max2_l/activation	glut_max3_l/activation	iliacus_l/activation	psoas_l/activation	quad_fem_l/activation	gem_l/activation	peri_l/activation	rect_fem_l/activation	vas_med_l/activation	vas_int_l/activation	vas_lat_l/activation	med_gas_l/activation	lat_gas_l/activation	soleus_l/activation	tib_post_l/activation	flex_dig_l/activation	flex_hal_l/activation	tib_ant_l/activation	per_brev_l/activation	per_long_l/activation	per_tert_l/activation	ext_dig_l/activation	ext_hal_l/activation	ercspn_l/activation	intobl_l/activation	extobl_l/activation	glut_med1_r/activation	glut_med2_r/activation	glut_med3_r/activation	glut_min1_r/activation	glut_min2_r/activation	glut_min3_r/activation	semimem_r/activation	semiten_r/activation	bifemlh_r/activation	bifemsh_r/activation	sar_r/activation	add_long_r/activation	add_brev_r/activation	add_mag1_r/activation	add_mag2_r/activation	add_mag3_r/activation	tfl_r/activation	pect_r/activation	grac_r/activation	glut_max1_r/activation	glut_max2_r/activation	glut_max3_r/activation	iliacus_r/activation	psoas_r/activation	quad_fem_r/activation	gem_r/activation	peri_r/activation	rect_fem_r/activation	vas_med_r/activation	vas_int_r/activation	vas_lat_r/activation	med_gas_r/activation	lat_gas_r/activation	soleus_r/activation	tib_post_r/activation	flex_dig_r/activation	flex_hal_r/activation	tib_ant_r/activation	per_brev_r/activation	per_long_r/activation	per_tert_r/activation	ext_dig_r/activation	ext_hal_r/activation	ercspn_r/activation	intobl_r/activation	extobl_r/activation	
          0.00000000	         -2.93000630	         -2.23770781	          5.71748184	          0.00000000	          0.91961748	         -0.00180958	        -16.22311537	         -1.22128572	          7.79560256	         28.85630657	          3.58356508	         -2.24483744	        -10.47954453	        -10.27053985	         -4.05234276	          4.81691663	         10.55464809	         -3.54109167	          5.29624357	         -0.24703767	         11.38577402	          0.88101376	         -2.04698433	          0.59703825	         -2.15213072	          5.17287704	        -13.46258090	         17.99291105	         -4.73492244	        -13.45796818	          8.64076242	         36.25254924	         14.63006957	         86.51662706	         86.51662706	          0.26676767	          0.09910314	          0.06414922	          0.29497847	          0.20214616	          0.10160073	          0.05000048	          0.05000007	          0.05000005	          0.05000946	          0.10658012	          0.09464299	          0.09549805	          0.05000050	          0.05000081	          0.05000025	          0.30206566	          0.11230799	          0.05000051	          0.05000035	          0.05000022	          0.05000023	          0.37933382	          0.57544718	          0.05000005	          0.05000021	          0.05000052	          0.24480974	          0.05000087	          0.05000091	          0.09432791	          0.25236542	          0.34461847	          0.31830013	          0.22625724	          0.21013564	          0.28203289	          0.05000000	          0.05965121	          0.13103013	          0.05000003	          0.05000000	          0.05000003	          0.05000000	          0.05000015	          0.07609443	          0.05965119	          0.05965120	          0.05000003	          0.05965123	          0.05965122	          0.05965098	          0.15179077	          0.08713454	          0.18499591	          0.05002937	          0.05000005	          0.17199664	          0.36213422	          0.10737825	          0.24451150	          0.11729151	          0.05000005	          0.05587565	          0.14830528	          0.05000017	          0.05000024	          0.06734333	          0.05965124	          0.05053703	          0.40181811	          0.29200113	          0.13003493	          0.05000012	          0.13794826	          0.13446922	          0.12288701	          0.07012935	          0.07224026	          0.06401263	          0.05000001	          0.05965276	          0.05000014	          0.50400615	          0.25064324	          0.15979537	          0.17720532	          0.45841628	          0.23053229	          0.05211677	          0.10813919	          0.09647428	
          0.01158145	         -2.92880069	         -2.31725941	          5.96319413	          0.01777535	          0.91879800	         -0.00161808	        -16.06899900	         -1.51362136	          7.62133357	         28.11841176	          3.99474538	         -2.00798008	        -12.40474595	        -10.59001357	         -4.69528070	          4.12663228	         11.66613909	         -3.92766402	          4.00931111	         -0.34086167	         13.51551708	          0.86801905	         -1.83631921	          0.79769746	         -2.23093803	          4.76670415	        -13.48247987	         18.19516654	         -5.68865431	        -13.45878615	          8.34907257	         37.50812033	         14.34211662	         86.51662706	         86.51662706	          0.22360629	          0.08306886	          0.05596872	          0.24725277	          0.16944015	          0.08516236	          0.05000141	          0.05000040	          0.05000075	          0.05000002	          0.08933616	          0.20526267	          0.09223959	          0.06889450	          0.05965156	          0.05965138	          0.25319330	          0.09828865	          0.05965039	          0.05914460	          0.05965100	          0.05965131	          0.31795993	          0.54115507	          0.05965128	          0.05965138	          0.05000020	          0.20520101	          0.14416315	          0.14416372	          0.12072700	          0.21153422	          0.28886129	          0.26680109	          0.18965020	          0.17613702	          0.23640171	          0.05000048	          0.05000005	          0.13070093	          0.05000009	          0.05128103	          0.05000013	          0.07017083	          0.06635111	          0.07116529	          0.05000000	          0.05000001	          0.11795983	          0.05000003	          0.05000002	          0.05000001	          0.12723198	          0.07303673	          0.15506470	          0.05000011	          0.05965125	          0.14416865	          0.33847933	          0.36821292	          0.24273948	          0.11644906	          0.05000011	          0.08490664	          0.16968627	          0.06689549	          0.10539232	          0.12783819	          0.05000007	          0.05000031	          0.56848589	          0.24475713	          0.10899609	          0.05965124	          0.12858023	          0.13611519	          0.10779244	          0.06747298	          0.07116499	          0.06059694	          0.05965098	          0.05000137	          0.05965038	          0.50725023	          0.31015332	          0.20637549	          0.14853461	          0.44021375	          0.19323359	          0.05000000	          0.09064293	          0.08086533	
          0.02316289	         -2.92225528	         -2.40442352	          6.17307872	          0.03585021	          0.91792624	         -0.00145526	        -15.85283796	         -1.80334994	          7.43675700	         27.24326409	          4.28055150	         -1.74011351	        -14.41722678	        -10.99237439	         -5.45259984	          3.59406863	         12.72280701	         -4.32747426	          2.53804563	         -0.47206222	         15.73362884	          0.89237977	         -1.60515881	          1.01335063	         -2.29811099	          4.26671531	        -13.50200518	         18.29571297	         -6.65922590	        -13.47175807	          8.11782695	         38.77667597	         14.08830785	         86.51662706	         86.51662706	          0.34425333	          0.06962884	          0.05000003	          0.34211980	          0.14202588	          0.07138364	          0.05000056	          0.05000005	          0.05000003	          0.05000062	          0.08490122	          0.17205243	          0.07731582	          0.05774781	          0.05000039	          0.05000019	          0.23508862	          0.08238916	          0.05000033	          0.05000036	          0.05000023	          0.05000017	          0.26651599	          0.50336200	          0.05000009	          0.05000027	          0.05000011	          0.17200073	          0.12083844	          0.12083892	          0.10119411	          0.17730926	          0.24212528	          0.22363428	          0.15896595	          0.14763915	          0.19815337	          0.09485726	          0.13374432	          0.16235326	          0.05000013	          0.12603613	          0.05000036	          0.06499138	          0.05561590	          0.05965118	          0.26810992	          0.28059279	          0.32253578	          0.46391151	          0.28753373	          0.21580589	          0.11340057	          0.06122262	          0.13222038	          0.05002723	          0.05000041	          0.12084304	          0.28371543	          0.30863833	          0.20346581	          0.13576192	          0.05000011	          0.07116941	          0.14223212	          0.15626778	          0.13475091	          0.10715482	          0.05000038	          0.05000009	          0.47650832	          0.20515694	          0.25128298	          0.05000006	          0.10777683	          0.11409269	          0.09035236	          0.05655627	          0.05965094	          0.05079273	          0.05000002	          0.05000009	          0.05000013	          0.57952615	          0.34376403	          0.17298526	          0.42220988	          0.51583736	          0.19358240	          0.07073350	          0.10129021	          0.06778181	
          0.03474434	         -2.91242908	         -2.48418823	          6.34496470	          0.05398422	          0.91704512	         -0.00126620	        -15.52843928	         -2.07446807	          7.26599016	         26.32360121	          4.53299530	         -1.47462658	        -16.57835432	        -11.35675946	         -6.32497769	          3.16571821	         13.72858378	         -4.73822249	          0.97343864	         -0.38518993	         17.83563493	          0.91685722	         -1.37787710	          1.22581335	         -2.35354174	          3.71954214	        -13.53032758	         18.32715593	         -7.59572259	        -13.48586019	          7.95295676	         40.02838177	         13.83772911	         86.51662706	         86.51662706	          0.28855524	          0.05836334	          0.05000004	          0.28676691	          0.11904698	          0.05983423	          0.05000041	          0.05000004	          0.05000006	          0.05000002	          0.07116477	          0.16612059	          0.13787032	          0.05000687	          0.05015678	          0.13256222	          0.19705275	          0.06905981	          0.05000015	          0.05000114	          0.05000075	          0.05000061	          0.22339532	          0.43668689	          0.05000008	          0.05000030	          0.05000006	          0.14417205	          0.10129001	          0.10128999	          0.09989977	          0.14862170	          0.20295088	          0.18745161	          0.13324623	          0.12375206	          0.16609338	          0.17892330	          0.15506160	          0.13690128	          0.13184523	          0.19873898	          0.09935986	          0.08884414	          0.05000000	          0.05000001	          0.38351336	          0.38765197	          0.41105050	          0.38885349	          0.24101274	          0.28405942	          0.10032021	          0.09527663	          0.11276498	          0.05000030	          0.05000021	          0.10129138	          0.23781201	          0.25870260	          0.17056663	          0.16627103	          0.05000010	          0.05965477	          0.11921995	          0.24851520	          0.19213705	          0.15816249	          0.05000003	          0.05000003	          0.39941216	          0.17196382	          0.21062729	          0.05000002	          0.14872805	          0.16001137	          0.11433753	          0.05000000	          0.05000002	          0.05000000	          0.05000000	          0.05000004	          0.05000004	          0.64285401	          0.28814518	          0.14499736	          0.57716433	          0.54542731	          0.32071047	          0.08577667	          0.08490207	          0.05681513	
